<svg width="46" height="54" viewBox="0 0 46 54" fill="none" xmlns="http://www.w3.org/2000/svg">
<g clip-path="url(#clip0_58_462)">
<path d="M-2 6.75C-2 4.95979 -1.3942 3.2429 -0.315865 1.97703C0.76247 0.711159 2.22501 0 3.75 0L38.25 0C39.775 0 41.2375 0.711159 42.3159 1.97703C43.3942 3.2429 44 4.95979 44 6.75L44 47.25C44 49.0402 43.3942 50.7571 42.3159 52.023C41.2375 53.2888 39.775 54 38.25 54L3.75 54C2.22501 54 0.76247 53.2888 -0.315865 52.023C-1.3942 50.7571 -2 49.0402 -2 47.25L-2 6.75ZM10.9375 28.6875H27.5924L21.4198 35.9303C21.1498 36.2471 20.9982 36.6769 20.9982 37.125C20.9982 37.5731 21.1498 38.0029 21.4198 38.3197C21.6897 38.6366 22.0558 38.8146 22.4375 38.8146C22.8192 38.8146 23.1853 38.6366 23.4552 38.3197L32.0802 28.1947C32.2141 28.038 32.3203 27.8518 32.3928 27.6468C32.4653 27.4417 32.5026 27.222 32.5026 27C32.5026 26.778 32.4653 26.5583 32.3928 26.3532C32.3203 26.1482 32.2141 25.962 32.0802 25.8053L23.4552 15.6802C23.1853 15.3634 22.8192 15.1854 22.4375 15.1854C22.0558 15.1854 21.6897 15.3634 21.4198 15.6802C21.1498 15.9971 20.9982 16.4269 20.9982 16.875C20.9982 17.3231 21.1498 17.7529 21.4198 18.0698L27.5924 25.3125H10.9375C10.5563 25.3125 10.1906 25.4903 9.92103 25.8068C9.65145 26.1232 9.5 26.5524 9.5 27C9.5 27.4476 9.65145 27.8768 9.92103 28.1932C10.1906 28.5097 10.5563 28.6875 10.9375 28.6875Z" fill="black"/>
</g>
<defs>
<clipPath id="clip0_58_462">
<rect width="46" height="54" fill="white" transform="translate(46 54) rotate(-180)"/>
</clipPath>
</defs>
</svg>
