<svg width="46" height="54" viewBox="0 0 46 54" fill="none" xmlns="http://www.w3.org/2000/svg">
<g clip-path="url(#clip0_58_459)">
<path d="M44 47.25C44 49.0402 43.3942 50.7571 42.3159 52.023C41.2375 53.2888 39.775 54 38.25 54H3.75C2.22501 54 0.76247 53.2888 -0.315864 52.023C-1.3942 50.7571 -2 49.0402 -2 47.25V6.75C-2 4.95979 -1.3942 3.2429 -0.315864 1.97703C0.76247 0.711159 2.22501 0 3.75 0L38.25 0C39.775 0 41.2375 0.711159 42.3159 1.97703C43.3942 3.2429 44 4.95979 44 6.75V47.25ZM31.0625 25.3125H14.4076L20.5802 18.0697C20.8502 17.7529 21.0018 17.3231 21.0018 16.875C21.0018 16.4269 20.8502 15.9971 20.5802 15.6803C20.3103 15.3634 19.9442 15.1854 19.5625 15.1854C19.1808 15.1854 18.8147 15.3634 18.5448 15.6803L9.91975 25.8053C9.78588 25.962 9.67967 26.1482 9.6072 26.3532C9.53473 26.5583 9.49743 26.778 9.49743 27C9.49743 27.222 9.53473 27.4417 9.6072 27.6468C9.67967 27.8518 9.78588 28.038 9.91975 28.1947L18.5448 38.3198C18.8147 38.6366 19.1808 38.8146 19.5625 38.8146C19.9442 38.8146 20.3103 38.6366 20.5802 38.3198C20.8502 38.0029 21.0018 37.5731 21.0018 37.125C21.0018 36.6769 20.8502 36.2471 20.5802 35.9302L14.4076 28.6875H31.0625C31.4437 28.6875 31.8094 28.5097 32.079 28.1932C32.3485 27.8768 32.5 27.4476 32.5 27C32.5 26.5524 32.3485 26.1232 32.079 25.8068C31.8094 25.4903 31.4437 25.3125 31.0625 25.3125Z" fill="black"/>
</g>
<defs>
<clipPath id="clip0_58_459">
<rect width="46" height="54" fill="white"/>
</clipPath>
</defs>
</svg>
